<svg width="29" height="29" viewBox="0 0 29 29" fill="none" xmlns="http://www.w3.org/2000/svg">
<g clip-path="url(#clip0)">
<path d="M14.7025 28.1249C22.4689 28.1249 28.7649 21.8289 28.7649 14.0625C28.7649 6.29597 22.4689 0 14.7025 0C6.93597 0 0.639999 6.29597 0.639999 14.0625C0.639999 21.8289 6.93597 28.1249 14.7025 28.1249Z" fill="#235390"/>
<g clip-path="url(#clip1)">
<path d="M23.1816 12.3942L23.1804 12.393L16.2458 5.45862C15.9502 5.1629 15.5572 5 15.1392 5C14.7212 5 14.3282 5.16277 14.0324 5.45849L7.10143 12.3894C7.09909 12.3917 7.09663 12.3942 7.09442 12.3965C6.48743 13.007 6.48847 13.9975 7.09754 14.6065C7.37561 14.8848 7.74292 15.046 8.13578 15.0629C8.15173 15.0644 8.16795 15.0652 8.18416 15.0652H8.46042V20.1685C8.46042 21.1784 9.2822 22 10.2922 22H13.0052C13.2803 22 13.5033 21.777 13.5033 21.502V17.501C13.5033 17.0402 13.8782 16.6653 14.3391 16.6653H15.9393C16.4001 16.6653 16.7749 17.0402 16.7749 17.501V21.502C16.7749 21.777 16.998 22 17.273 22H19.9861C20.9962 22 21.8178 21.1784 21.8178 20.1685V15.0652H22.0741C22.492 15.0652 22.885 14.9024 23.1808 14.6067C23.7904 13.9967 23.7908 13.0045 23.1816 12.3942Z" fill="#FAD87C"/>
<path d="M23.1816 12.3942L23.1804 12.393L16.2458 5.45862C15.9502 5.1629 15.5572 5 15.1392 5C14.7211 5 14.3281 5.16277 14.0324 5.45849L7.10141 12.3894C7.09908 12.3917 7.09661 12.3942 7.09441 12.3965C6.48741 13.007 6.48845 13.9975 7.09752 14.6065C7.3756 14.8848 7.74291 15.046 8.13577 15.0629C8.15172 15.0644 8.16793 15.0652 8.18414 15.0652L15.1392 8L19.14 12.3894C19.14 13.3992 16.4558 13.2103 17.4658 13.2103L18.3293 11.5C18.6044 11.5 18.3293 11.2751 18.3293 11L17.5878 10.6864C17.5878 10.2256 17.1792 13.5 17.64 13.5L15.9393 16.6653C16.4001 16.6653 16.7749 17.0402 16.7749 17.501V21.502C16.7749 21.777 16.998 22 17.273 22H19.986C20.9961 22 21.8178 21.1784 21.8178 20.1685V15.0652H22.0741C22.492 15.0652 22.885 14.9024 23.1808 14.6067C23.7904 13.9967 23.7908 13.0045 23.1816 12.3942Z" fill="#FF127F"/>
<path d="M23.1816 12.3942C23.1813 12.3938 23.1809 12.3934 23.1805 12.393L16.2458 5.45862C15.9502 5.1629 15.5573 5 15.1392 5H15.1391V16.6653H15.9393C16.4002 16.6653 16.775 17.0402 16.775 17.501V21.502C16.775 21.777 16.9981 22 17.273 22H19.9861C20.9962 22 21.8179 21.1784 21.8179 20.1685V15.0652H22.0741C22.492 15.0652 22.885 14.9024 23.1809 14.6067C23.7905 13.9967 23.7908 13.0045 23.1816 12.3942Z" fill="#FEBE40"/>
<path d="M23.1805 12.393L23.1816 12.3942C23.7908 13.0045 23.7904 13.9967 23.1809 14.6067C22.885 14.9024 22.492 15.0652 22.0741 15.0652L15.1392 8.0001L15.1391 12.9991L15.1391 8L15.1392 8.0001L15.1392 5C15.5572 5 15.9502 5.1629 16.2458 5.45862L23.1805 12.393Z" fill="#FF127F"/>
</g>
</g>
<defs>
<clipPath id="clip0">
<rect width="28.1249" height="28.1249" fill="white" transform="translate(0.639999)"/>
</clipPath>
<clipPath id="clip1">
<rect width="17" height="17" fill="white" transform="translate(6.64 5)"/>
</clipPath>
</defs>
</svg>
